<svg xmlns="http://www.w3.org/2000/svg" viewBox="0 0 50.31 61.45"><defs><style>.cls-1{fill:#c32032;fill-rule:evenodd;}.cls-2{fill:#fff;}.cls-3{fill:#382b20;}</style></defs><g id="レイヤー_2" data-name="レイヤー 2"><g id="メニューマウスオン画面"><path class="cls-1" d="M19.55,0H30.76a5.53,5.53,0,0,1,5.61,5.39V39.68a5.53,5.53,0,0,1-5.61,5.42H19.55a5.53,5.53,0,0,1-5.61-5.42V5.39A5.53,5.53,0,0,1,19.55,0Z"/><path class="cls-2" d="M29.25,8.28a1.55,1.55,0,0,0-1.66-.41,18,18,0,0,0-2.31-.06H24.16c-.47.15-1.85,0-2.47.18a3.81,3.81,0,0,0-.84,3.53A6.93,6.93,0,0,0,22,16.39c.16,0,.41.47,1.06.47.25.1.41.16.38.75a24.71,24.71,0,0,0-.75,2.75,10.92,10.92,0,0,1-.84,1.78,1.25,1.25,0,0,0,.09,1c.19,0,.28-.15.41-.15A13.71,13.71,0,0,0,24,18.33c.19-.47,0-.69.41-1.07a1.28,1.28,0,0,1,.9-.3,2.22,2.22,0,0,1,1.59.3,21.64,21.64,0,0,0,1.13,4c.5.63.43,1.69,1.31,1.91.19-.09-.13-.19,0-.32.28-1-.47-1.74-.78-2.55s-.41-1.85-.69-2.69c-.06-.38-.22-.91.28-1.12s1-.34,1.19-.88c.47-.56.41-1.56.59-2.25a4.9,4.9,0,0,0,.28-2.27C30.06,10.15,30.37,8.68,29.25,8.28Zm-6.59.56c.81,0,1.68-.16,2.62-.1h.06c1.07.07,2.25,0,3.28,0a2.58,2.58,0,0,0,.22.31,9.72,9.72,0,0,1,.06,1.34c-.43.19-.9-.06-1.31-.1s-1.4.1-2.31.19a5.62,5.62,0,0,1-1.53,0c-.38.19-.81-.06-1.25.16-.22-.19-.56.22-.75-.09C21.47,9.83,22.16,9.24,22.66,8.84Zm5.52,6.46c-.62,0-1.09.47-1.71.53a3.82,3.82,0,0,1-1.19.13,3.39,3.39,0,0,1-1.22-.13c-.65.25-1.12-.28-1.56-.75-.06-.37-.47-1-.4-1.4.87-.35,2.15-.07,3.18-.16a2.76,2.76,0,0,0,.65-.13,9.14,9.14,0,0,0,3.1,0C28.81,14,29.06,15.27,28.18,15.3Zm.72-2.75c-1.18,0-2.31,0-3.5.09l-.12,0a10.35,10.35,0,0,0-3.18.27c-.32-.21-.22-.71-.35-1.09-.06-.53.53-.34.81-.46a7.72,7.72,0,0,0,2.72.12c1.28-.09,2.56-.28,2.78-.28a.56.56,0,0,1,.84.16C28.9,11.74,29.21,12.18,28.9,12.55Z"/><path class="cls-2" d="M32.65,6.21c-.16-.37-5.15-.49-6.21-.34-.54-.37.09-1.12,0-1.59.15-.81,2.59-.56,3.28-.56s1.21,0,1.87.15c.25-.12.78,0,.81-.34-.19-.5-.69-.47-1.09-.56-1.69.06-3.41,0-5.16.09h-.87a41.93,41.93,0,0,1-5.52-.15c-.35.15-1,.18-.94.75a.43.43,0,0,0,.18.06,1.42,1.42,0,0,0,.69.06c1.41.28,4-.09,5.31.09a1.52,1.52,0,0,1,.25.81c0,.35,0,1-.25,1.19-.9-.09-4-.25-4.93.19a4.68,4.68,0,0,0-2.38.22A.54.54,0,0,0,18,7c.77.09,2.84-.35,3.87-.25a15.83,15.83,0,0,1,3.43,0,4,4,0,0,0,1-.1c.91-.15,5.46.16,6.18,0A.44.44,0,0,0,32.65,6.21Z"/><path class="cls-2" d="M29,27.37V25a.26.26,0,0,0-.16-.06s-.09,0-.19,0v0c-.09,0-.15,0-.22,0s-.09,0-.12,0,0,.25-.06.44,0,.37,0,.63a5.52,5.52,0,0,0-.06.68c0,.19,0,.65-.06.78-.41.25-1,.34-1.25-.75,0-.09,0-.15,0-.22V25.31c-.09-.12-.19-.24-.28-.34H26v.56a1.06,1.06,0,0,0,0,.32v.31c0,.06,0,.15,0,.22a1.32,1.32,0,0,0,0,.31,1.77,1.77,0,0,0,.09.5c.07.18.1.34.16.53s.1.28.13.41a1.69,1.69,0,0,0,.37.24,1.58,1.58,0,0,0,.53.16c.19,0,.38,0,.53.07a1.37,1.37,0,0,1,.44.06v.24a1.16,1.16,0,0,0,0,.16c0,.07,0,.1.06.13s.13.09.19.15l.06,0,.35-.12.09-.72a.42.42,0,0,0,.19.06.54.54,0,0,0,.31,0c.13,0,.25,0,.34,0a.84.84,0,0,1,.25,0c.16,0,.32-.13.5-.32a2.14,2.14,0,0,0,.47-1A2.83,2.83,0,0,0,31.34,26a4.74,4.74,0,0,0-.07-.87c-.06-.06-.09-.13-.12-.16s-.06-.06-.09-.06a.15.15,0,0,0-.16,0l-.12,0s-.07,0-.1,0-.09.22-.12.34-.06.22-.1.35.07.34.1.53a2.4,2.4,0,0,1-.19.66C29.9,27.88,29.47,27.53,29,27.37Z"/><path class="cls-2" d="M23.59,35.59h-.24a.24.24,0,0,0-.13,0,.23.23,0,0,0-.12.12c0,.07-.07.1-.07.16a2.25,2.25,0,0,1-.06.41A8,8,0,0,1,22.53,38a4.49,4.49,0,0,1-.43.94,5.56,5.56,0,0,1-.78,1.15,4.83,4.83,0,0,1-1.07.78,5.7,5.7,0,0,1-.65.35.67.67,0,0,1-.13.15V42a2.87,2.87,0,0,0,.32.15.54.54,0,0,0,.28-.06,1,1,0,0,0,.4-.21,4.83,4.83,0,0,0,.47-.29l.31-.25a7.88,7.88,0,0,0,.78-.9,6.37,6.37,0,0,0,.5-.57,4.76,4.76,0,0,0,.41-.62,8.07,8.07,0,0,0,.59-1.59c.1-.47.19-.84.22-1.13v-.81s0-.06-.06-.09S23.63,35.62,23.59,35.59Z"/><path class="cls-2" d="M28.65,34.93c.28,0,.56,0,.78,0a7.54,7.54,0,0,0,1-.12c1.84-.63,0-.88-.9-.57H28.18c-.53,0-.93,0-1.31,0s-.59,0-.84,0c0-.06,0-.19,0-.31S26,33,26,32.84a3.54,3.54,0,0,0,.06-.47,1.1,1.1,0,0,0,0-.28,2.18,2.18,0,0,0,0-.81.71.71,0,0,0-.62-.37c-.13,0-.28.27-.38.49a2.78,2.78,0,0,0,0,.85l.13,1.9c-.75,0-1.78.16-2.69.12a3.1,3.1,0,0,0-.43,0,5.58,5.58,0,0,0-1.63-.07c-.5.13-.9.41,0,.69.16,0,.32.06.6.06h4c0,2.1,0,4.19,0,6.28v.34c0,.09,0,.19,0,.28s0,.13.07.19a.41.41,0,0,0,.12.09s.06,0,.13.06h.24A1.05,1.05,0,0,0,26,42V34.93a5.8,5.8,0,0,1,.78,0h1.34A3.39,3.39,0,0,0,28.65,34.93Z"/><path class="cls-2" d="M20.44,32a1.44,1.44,0,0,0,.72-.19l.5-.15v0a6,6,0,0,0,.87-.34,5.91,5.91,0,0,1,1.06-.4,9.16,9.16,0,0,1,2-.79,6,6,0,0,1,2.13.72l.93.47c.44.19.85.41,1.28.63a2.61,2.61,0,0,0,.75.15,4.24,4.24,0,0,0,.66,0c0-1.09,0-.75-1.28-1.25-.41-.19-.88-.47-1.41-.66a.23.23,0,0,0-.15-.06c-.56-.22-1.06-.4-1.5-.56s-1.13-.34-1.41-.5c-.31.1-.53.22-1,.41a16.34,16.34,0,0,0-1.59.65l-.44.19c-.47.16-.87.34-1.24.47a11.88,11.88,0,0,1-1.19.4,3.69,3.69,0,0,0-.19.35C19.88,32,19.69,31.9,20.44,32Z"/><path class="cls-2" d="M31.06,41.36a2.89,2.89,0,0,1-1.88-1.84,5.43,5.43,0,0,0-.43-.81c0-.06-.07-.12-.1-.19a7.1,7.1,0,0,1-.37-.94c-.13-.43-.22-.77-.31-1.08s-.13-.57-.16-.76a.73.73,0,0,1-.13-.09l-.15-.06h-.25c-.06.15-.16.31-.22.47v.49c.06.22.13.48.19.78s.28.79.43,1.22a9.69,9.69,0,0,0,.44,1.06c.19.32.35.6.5.82l0,0a5.91,5.91,0,0,1,.5.56,3.36,3.36,0,0,0,.75.69,1.84,1.84,0,0,0,.75.43,1.22,1.22,0,0,0,.56,0,.09.09,0,0,1,0-.09,1,1,0,0,0,0-.12s.07-.06.1-.06,0,0,.06,0A1,1,0,0,0,31.06,41.36Z"/><path class="cls-2" d="M20.57,25.41a1.46,1.46,0,0,0-.16-.44s0,0-.06,0l-.13,0c-.06,0-.09,0-.12,0s-.06,0-.1.06,0,.19,0,.28a1.76,1.76,0,0,0,0,.41,1.94,1.94,0,0,0,0,.4v.85a4.64,4.64,0,0,0,.41.84,1.58,1.58,0,0,0,.65.59,1.6,1.6,0,0,0,.72.16,3.15,3.15,0,0,1,.5,0c0,.31.06.59.09.87h.28c.1,0,.13-.06.19-.06a.48.48,0,0,0,.13-.09v-.38c0-.06,0-.15.06-.21s0-.1,0-.13a1.89,1.89,0,0,1,.44,0,2.38,2.38,0,0,0,.62-.1,1.85,1.85,0,0,0,.63-.34,4.72,4.72,0,0,0,.5-.59V26.22a3.19,3.19,0,0,0,0-.65,1.8,1.8,0,0,0-.09-.44.76.76,0,0,0-.09-.16h-.28a.7.7,0,0,0-.19.16v1.4c-.13.19-.22.38-.31.54-.63.77-.53.15-1.19.18v-.53a5,5,0,0,1,0-.68c0-.26,0-.47-.06-.63V25a.39.39,0,0,0-.19-.06s-.09,0-.16,0a0,0,0,0,0,0,0,1.52,1.52,0,0,0-.19,0c-.06,0-.09,0-.12,0a2.18,2.18,0,0,1,0,.41,4,4,0,0,1,0,.56c0,.19,0,.37,0,.53v.44c0,.09.06.21.09.34-.72.38-1.06.41-1.37-.56a2,2,0,0,1-.19-.63A4.48,4.48,0,0,0,20.57,25.41Z"/><path class="cls-3" d="M13.33,52.69a2.91,2.91,0,0,0-1.07-.2,3,3,0,0,0-2.12.82,2.89,2.89,0,0,0,0,4.1,2.91,2.91,0,0,0,2.11.81,2.76,2.76,0,0,0,2-.86,3.16,3.16,0,0,0,.64-1,2.78,2.78,0,0,0,.22-1.11,3,3,0,0,0-1.79-2.6ZM12.16,58a1.41,1.41,0,0,1-1.26-.68,3.45,3.45,0,0,1-.44-1.92,3.5,3.5,0,0,1,.47-1.94,1.44,1.44,0,0,1,1.23-.71,1.5,1.5,0,0,1,1.3.67,3.37,3.37,0,0,1,.47,1.93C13.93,57.09,13.34,58,12.16,58Z"/><path class="cls-3" d="M22.18,57.78a2,2,0,0,1-.35-.1.41.41,0,0,1-.25-.23,1.65,1.65,0,0,1,0-.47V54.12a1.54,1.54,0,0,0-.47-1.21,2,2,0,0,0-1.35-.42,2.27,2.27,0,0,0-2,1.16c0-.21,0-.46-.06-.76s-.1-.44-.23-.44l-.37.12a4.44,4.44,0,0,1-.79.22c-.3.06-.46.13-.46.19s.09.1.25.12a.93.93,0,0,1,.34.08.42.42,0,0,1,.24.28,2,2,0,0,1,.06.58V57a1.65,1.65,0,0,1-.05.47.41.41,0,0,1-.25.23,1.43,1.43,0,0,1-.34.1c-.16,0-.25.08-.25.15s.07.13.19.13l.54-.05.7,0,.65,0,.58,0c.13,0,.19,0,.19-.11s-.08-.14-.24-.17a2,2,0,0,1-.35-.1.41.41,0,0,1-.25-.23,1.65,1.65,0,0,1,0-.47V54.66a1.8,1.8,0,0,1,.45-1.26,1.43,1.43,0,0,1,1.09-.51c.77,0,1.16.44,1.16,1.3V57a1.65,1.65,0,0,1-.05.47.41.41,0,0,1-.25.23,1.43,1.43,0,0,1-.34.1c-.16,0-.25.08-.25.15s.07.13.2.13l.54-.05L21,58l.65,0,.59,0c.12,0,.18,0,.18-.11S22.34,57.81,22.18,57.78Z"/><path class="cls-3" d="M50.2,57.46s-.09,0-.2.12a.55.55,0,0,1-.31.13c-.27,0-.4-.23-.4-.67V53.92c0-1-.7-1.42-2.11-1.42a3.38,3.38,0,0,0-1.56.3c-.38.19-.56.43-.56.72s.14.45.42.45a.43.43,0,0,0,.41-.17,1.54,1.54,0,0,0,.12-.46c.05-.4.4-.59,1.06-.59s1.18.32,1.18,1v1c-2.26.82-3.39,1.63-3.39,2.42a1,1,0,0,0,.34.82,1.31,1.31,0,0,0,.91.3,3,3,0,0,0,2.1-.87,1.05,1.05,0,0,0,.38.63,1.08,1.08,0,0,0,.7.24A1.15,1.15,0,0,0,50,58c.2-.15.31-.29.31-.41A.1.1,0,0,0,50.2,57.46Zm-2-.78a.94.94,0,0,1-.46.74,1.65,1.65,0,0,1-1,.33.78.78,0,0,1-.6-.24,1,1,0,0,1-.22-.67c0-.68.75-1.31,2.25-1.9Z"/><path class="cls-3" d="M28.69,51.9l-.55-.36c-.16.14-.31.25-.46.36a4.92,4.92,0,0,1-.45.28l-.48.26h0a1.45,1.45,0,0,1-.63.08l-.13,0h0l-.32,0a2.43,2.43,0,0,0-1.65.57,1.84,1.84,0,0,0-.65,1.43,1.76,1.76,0,0,0,.36,1.09,2.2,2.2,0,0,0,1,.7q-1.14.22-1.14,1.11a.89.89,0,0,0,.52.86,3.46,3.46,0,0,0,1.56.27,4,4,0,0,1,1.63.24,1,1,0,0,1,.48,1,1.29,1.29,0,0,1-.49,1,2.24,2.24,0,0,1-1.38.38,2.54,2.54,0,0,1-1.43-.35,1,1,0,0,1-.52-.92,1.14,1.14,0,0,1,.16-.65.87.87,0,0,1,.38-.36c0-.11-.14-.17-.42-.17a.85.85,0,0,0-.64.31,1,1,0,0,0-.28.71A1.45,1.45,0,0,0,23.84,61a3.3,3.3,0,0,0,1.91.49,3.23,3.23,0,0,0,2.05-.58,1.85,1.85,0,0,0,.75-1.55,1.69,1.69,0,0,0-.65-1.48,3.76,3.76,0,0,0-2.08-.44c-1.12,0-1.68-.14-1.68-.41s.12-.35.37-.43a3.54,3.54,0,0,1,1.14-.13,2.5,2.5,0,0,0,1.68-.49,1.77,1.77,0,0,0,.57-1.41,2.11,2.11,0,0,0-.43-1.23,1.6,1.6,0,0,0-.22-.24h0a2.12,2.12,0,0,0-.53-.33l.17,0,.5-.14.49-.16.55-.22.19,0a.19.19,0,0,0,.16-.09S28.76,52,28.69,51.9Zm-2.18,3.84a1.08,1.08,0,0,1-.92.45,1,1,0,0,1-.89-.46,2.19,2.19,0,0,1-.33-1.28,2.09,2.09,0,0,1,.34-1.24,1,1,0,0,1,.85-.47,1.1,1.1,0,0,1,.94.45,2.59,2.59,0,0,1,0,2.55Z"/><path class="cls-3" d="M36.32,57.14l0,0a2.12,2.12,0,0,1-1.51.65,1.6,1.6,0,0,1-1.29-.64A2.91,2.91,0,0,1,33,55.39a3.37,3.37,0,0,1,.48-1.94,1.5,1.5,0,0,1,1.29-.69.89.89,0,0,1,.56.13,1.37,1.37,0,0,1,.25.45.5.5,0,0,0,.49.35.34.34,0,0,0,.39-.39.68.68,0,0,0-.43-.58,2.48,2.48,0,0,0-1.14-.23,3,3,0,0,0-2.13.75,2.83,2.83,0,0,0-1,2.18,2.76,2.76,0,0,0,.75,2.06,2.83,2.83,0,0,0,2.07.74h.27a1.65,1.65,0,0,0,1.6-1l-.08-.1S36.33,57.12,36.32,57.14Z"/><path class="cls-3" d="M43.77,57.78l-.35-.1a.44.44,0,0,1-.25-.23,1.65,1.65,0,0,1,0-.47V54.12a1.54,1.54,0,0,0-.46-1.2,2,2,0,0,0-1.36-.41,2.24,2.24,0,0,0-2,1V49.4c0-.13-.05-.2-.14-.2l-.58.14-.3,0-1,.16s-.07,0,0,.06l.24.25c.51-.06.67.14.72.3a1.73,1.73,0,0,1,0,.36V57a1.65,1.65,0,0,1,0,.47.47.47,0,0,1-.25.23,2.15,2.15,0,0,1-.34.1c-.17,0-.25.08-.25.14s.07.14.2.14L38.1,58l.7,0,.65,0,.59,0c.12,0,.18,0,.18-.11s-.08-.14-.24-.17l-.35-.1a.44.44,0,0,1-.25-.23,1.65,1.65,0,0,1,0-.47V54.66a1.76,1.76,0,0,1,.46-1.26,1.42,1.42,0,0,1,1.1-.51c.76,0,1.15.44,1.15,1.3V57a1.65,1.65,0,0,1,0,.47.41.41,0,0,1-.25.23,2.15,2.15,0,0,1-.34.1c-.16,0-.24.08-.24.14s.06.14.18.14l.54-.05.7,0,.65,0,.58,0c.13,0,.19,0,.19-.11S43.93,57.81,43.77,57.78Z"/><path class="cls-3" d="M8.47,54.58,7,54.65q-.48,0-.84,0l-.57,0c-.19,0-.28,0-.28.13s.1.13.31.16L6,55c.28.11.43.42.43.93A2,2,0,0,1,6,57.41a2.26,2.26,0,0,1-1.62.49,2.45,2.45,0,0,1-2.07-1A4.79,4.79,0,0,1,1.51,54a5.14,5.14,0,0,1,.77-3.09,2.61,2.61,0,0,1,2.25-1,2.31,2.31,0,0,1,2.33,1.72,2.22,2.22,0,0,1,.11.36c0,.15.08.22.14.22s.11,0,.11-.15l0-1.3h0l0-.92-.23-.07a1.1,1.1,0,0,1-.14.44.23.23,0,0,1-.23,0l-1-.39a4.89,4.89,0,0,0-1.37-.18,4.11,4.11,0,0,0-3.13,1.27A4.54,4.54,0,0,0,0,54.18,3.89,3.89,0,0,0,1.1,57a4,4,0,0,0,3,1.19,4.28,4.28,0,0,0,1.66-.33c.39-.18.77-.37,1.15-.57a2.42,2.42,0,0,1,.43-.13,2.78,2.78,0,0,1,.52,0c0-.19,0-.34,0-.47s0-.29,0-.51V56a3.62,3.62,0,0,1,.05-.68A.53.53,0,0,1,8,55a1.36,1.36,0,0,1,.42-.16c.16,0,.24-.1.24-.16S8.62,54.58,8.47,54.58Z"/></g></g></svg>